<svg width="200" height="200" viewBox="0 0 200 200" fill="none" xmlns="http://www.w3.org/2000/svg">
<g clip-path="url(#clip0_29_152)">
<path d="M137.5 87.5C137.5 108.25 120.75 125 100 125C79.25 125 62.5 108.25 62.5 87.5C62.5 66.75 79.25 50 100 50C120.75 50 137.5 66.75 137.5 87.5Z" fill="#384152"/>
<path fill-rule="evenodd" clip-rule="evenodd" d="M200 100C200 155.25 155.25 200 100 200C44.75 200 0 155.25 0 100C0 44.75 44.75 0 100 0C155.25 0 200 44.75 200 100ZM50 171.875C52 168.55 71.375 137.5 99.875 137.5C128.25 137.5 147.75 168.625 149.75 171.875C161.373 163.837 170.87 153.097 177.424 140.577C183.978 128.056 187.393 114.132 187.375 100C187.375 51.625 148.25 12.5 99.875 12.5C51.5 12.5 12.375 51.625 12.375 100C12.375 129.75 27.25 156.125 50 171.875Z" fill="#384152"/>
</g>
<defs>
<clipPath id="clip0_29_152">
<rect width="200" height="200" fill="white"/>
</clipPath>
</defs>
</svg>
